<svg version="1.1" viewBox="0.0 0.0 35.0 35.0" fill="none" stroke="none" stroke-linecap="square" stroke-miterlimit="10" xmlns:xlink="http://www.w3.org/1999/xlink" xmlns="http://www.w3.org/2000/svg"><clipPath id="p.0"><path d="m0 0l35.0 0l0 35.0l-35.0 0l0 -35.0z" clip-rule="nonzero"/></clipPath><g clip-path="url(#p.0)"><path fill="#000000" fill-opacity="0.0" d="m0 0l35.0 0l0 35.0l-35.0 0z" fill-rule="evenodd"/><path fill="#000000" d="m4.2401576 17.500074l0 0c0 -7.3319063 5.9366336 -13.275591 13.259842 -13.275591l0 0c3.5167294 0 6.8894215 1.3986745 9.376125 3.888331c2.486702 2.4896555 3.8837166 5.866354 3.8837166 9.3872595l0 0c0 7.3319073 -5.936634 13.275591 -13.259842 13.275591l0 0c-7.323209 0 -13.259842 -5.9436836 -13.259842 -13.275591zm4.0118976 0l0 0c0 5.1161957 4.1404457 9.263693 9.247945 9.263693c5.107498 0 9.247944 -4.147497 9.247944 -9.263693c0 -5.1161957 -4.1404457 -9.263693 -9.247944 -9.263693l0 0c-5.107499 0 -9.247945 4.147497 -9.247945 9.263693z" fill-rule="evenodd"/><path stroke="#000000" stroke-width="1.0" stroke-linejoin="round" stroke-linecap="butt" d="m4.2401576 17.500074l0 0c0 -7.3319063 5.9366336 -13.275591 13.259842 -13.275591l0 0c3.5167294 0 6.8894215 1.3986745 9.376125 3.888331c2.486702 2.4896555 3.8837166 5.866354 3.8837166 9.3872595l0 0c0 7.3319073 -5.936634 13.275591 -13.259842 13.275591l0 0c-7.323209 0 -13.259842 -5.9436836 -13.259842 -13.275591zm4.0118976 0l0 0c0 5.1161957 4.1404457 9.263693 9.247945 9.263693c5.107498 0 9.247944 -4.147497 9.247944 -9.263693c0 -5.1161957 -4.1404457 -9.263693 -9.247944 -9.263693l0 0c-5.107499 0 -9.247945 4.147497 -9.247945 9.263693z" fill-rule="evenodd"/><path fill="#000000" d="m13.737533 8.269029l1.4173231 -5.669291l4.692913 0l1.4173222 5.669291z" fill-rule="evenodd"/><path stroke="#000000" stroke-width="1.0" stroke-linejoin="round" stroke-linecap="butt" d="m13.737533 8.269029l1.4173231 -5.669291l4.692913 0l1.4173222 5.669291z" fill-rule="evenodd"/><path fill="#000000" d="m13.737533 26.73097l1.4173231 5.6692905l4.692913 0l1.4173222 -5.6692905z" fill-rule="evenodd"/><path stroke="#000000" stroke-width="1.0" stroke-linejoin="round" stroke-linecap="butt" d="m13.737533 26.73097l1.4173231 5.6692905l4.692913 0l1.4173222 -5.6692905z" fill-rule="evenodd"/><path fill="#000000" d="m8.270341 13.73622l-5.669291 1.4173231l0 4.692913l5.669291 1.4173222z" fill-rule="evenodd"/><path stroke="#000000" stroke-width="1.0" stroke-linejoin="round" stroke-linecap="butt" d="m8.270341 13.73622l-5.669291 1.4173231l0 4.692913l5.669291 1.4173222z" fill-rule="evenodd"/><path fill="#000000" d="m26.732283 13.734908l5.6692905 1.4173231l0 4.692913l-5.6692905 1.4173222z" fill-rule="evenodd"/><path stroke="#000000" stroke-width="1.0" stroke-linejoin="round" stroke-linecap="butt" d="m26.732283 13.734908l5.6692905 1.4173231l0 4.692913l-5.6692905 1.4173222z" fill-rule="evenodd"/><path fill="#000000" d="m8.302994 21.375803l-3.0000005 5.0l3.3228345 3.322834l5.0 -3.0z" fill-rule="evenodd"/><path stroke="#000000" stroke-width="1.0" stroke-linejoin="round" stroke-linecap="butt" d="m8.302994 21.375803l-3.0000005 5.0l3.3228345 3.322834l5.0 -3.0z" fill-rule="evenodd"/><path fill="#000000" d="m21.374218 8.302722l5.0 -3.0000005l3.322836 3.3228345l-3.0 5.0z" fill-rule="evenodd"/><path stroke="#000000" stroke-width="1.0" stroke-linejoin="round" stroke-linecap="butt" d="m21.374218 8.302722l5.0 -3.0000005l3.322836 3.3228345l-3.0 5.0z" fill-rule="evenodd"/><path fill="#000000" d="m13.626212 8.301024l-5.0 -3.0l-3.3228345 3.322835l3.0000005 5.0z" fill-rule="evenodd"/><path stroke="#000000" stroke-width="1.0" stroke-linejoin="round" stroke-linecap="butt" d="m13.626212 8.301024l-5.0 -3.0l-3.3228345 3.322835l3.0000005 5.0z" fill-rule="evenodd"/><path fill="#000000" d="m26.699293 21.37225l3.0 5.0l-3.322834 3.322834l-5.0 -3.0z" fill-rule="evenodd"/><path stroke="#000000" stroke-width="1.0" stroke-linejoin="round" stroke-linecap="butt" d="m26.699293 21.37225l3.0 5.0l-3.322834 3.322834l-5.0 -3.0z" fill-rule="evenodd"/></g></svg>