<svg version="1.1" viewBox="0.0 0.0 80.0 80.0" fill="none" stroke="none" stroke-linecap="square" stroke-miterlimit="10" xmlns:xlink="http://www.w3.org/1999/xlink" xmlns="http://www.w3.org/2000/svg"><clipPath id="p.0"><path d="m0 0l80.0 0l0 80.0l-80.0 0l0 -80.0z" clip-rule="nonzero"/></clipPath><g clip-path="url(#p.0)"><path fill="#000000" fill-opacity="0.0" d="m0 0l80.0 0l0 80.0l-80.0 0z" fill-rule="evenodd"/><path fill="#000000" fill-opacity="0.0" d="m19.619263 62.67086l39.46457 -43.84252" fill-rule="evenodd"/><path stroke="#000000" stroke-width="4.0" stroke-linejoin="round" stroke-linecap="butt" d="m19.619263 62.67086l39.46457 -43.84252" fill-rule="evenodd"/><path fill="#000000" d="m19.685038 57.98808l0 0c2.1134682 -0.3739891 4.1440506 1.0361366 4.535433 3.1496048l0 0c0.18794823 1.0149231 -0.03497696 2.05962 -0.6197357 2.9042702c-0.58475876 0.8446579 -1.4834518 1.4200745 -2.498375 1.5996704l0 0c-2.1134663 0.3739853 -4.1440487 -1.0361404 -4.535433 -3.1496086l0 0c-0.39138222 -2.1134682 1.0046425 -4.1299515 3.1181107 -4.503937z" fill-rule="evenodd"/><path stroke="#000000" stroke-width="1.0" stroke-linejoin="round" stroke-linecap="butt" d="m19.685038 57.98808l0 0c2.1134682 -0.3739891 4.1440506 1.0361366 4.535433 3.1496048l0 0c0.18794823 1.0149231 -0.03497696 2.05962 -0.6197357 2.9042702c-0.58475876 0.8446579 -1.4834518 1.4200745 -2.498375 1.5996704l0 0c-2.1134663 0.3739853 -4.1440487 -1.0361404 -4.535433 -3.1496086l0 0c-0.39138222 -2.1134682 1.0046425 -4.1299515 3.1181107 -4.503937z" fill-rule="evenodd"/><path fill="#000000" d="m58.9158 14.395647l0 0c2.1047707 -0.39138317 4.1283035 1.011693 4.5196877 3.1338577l0 0c0.18794632 1.0191002 -0.033317566 2.0711212 -0.61512375 2.924635c-0.5818062 0.8535118 -1.4764938 1.4385986 -2.4872398 1.6265469l0 0c-2.1047707 0.39138222 -4.1282997 -1.011694 -4.519684 -3.1338596l0 0c-0.39138412 -2.1221638 0.9975929 -4.1597977 3.1023598 -4.55118z" fill-rule="evenodd"/><path stroke="#000000" stroke-width="1.0" stroke-linejoin="round" stroke-linecap="butt" d="m58.9158 14.395647l0 0c2.1047707 -0.39138317 4.1283035 1.011693 4.5196877 3.1338577l0 0c0.18794632 1.0191002 -0.033317566 2.0711212 -0.61512375 2.924635c-0.5818062 0.8535118 -1.4764938 1.4385986 -2.4872398 1.6265469l0 0c-2.1047707 0.39138222 -4.1282997 -1.011694 -4.519684 -3.1338596l0 0c-0.39138412 -2.1221638 0.9975929 -4.1597977 3.1023598 -4.55118z" fill-rule="evenodd"/></g></svg>