<svg version="1.1" viewBox="0.0 0.0 35.0 35.0" fill="none" stroke="none" stroke-linecap="square" stroke-miterlimit="10" xmlns:xlink="http://www.w3.org/1999/xlink" xmlns="http://www.w3.org/2000/svg"><clipPath id="p.0"><path d="m0 0l35.0 0l0 35.0l-35.0 0l0 -35.0z" clip-rule="nonzero"/></clipPath><g clip-path="url(#p.0)"><path fill="#000000" fill-opacity="0.0" d="m0 0l35.0 0l0 35.0l-35.0 0z" fill-rule="evenodd"/><path fill="#000000" d="m4.02242 17.5l0 0c0 -1.5829268 1.2832155 -2.8661423 2.8661418 -2.8661423l0 0c0.76014805 0 1.489162 0.30196762 2.026668 0.8394737c0.5375061 0.5375061 0.8394737 1.2665195 0.8394737 2.0266685l0 0c0 1.5829258 -1.2832155 2.8661423 -2.8661418 2.8661423l0 0c-1.5829263 0 -2.8661418 -1.2832165 -2.8661418 -2.8661423z" fill-rule="evenodd"/><path stroke="#000000" stroke-width="1.0" stroke-linejoin="round" stroke-linecap="butt" d="m4.02242 17.5l0 0c0 -1.5829268 1.2832155 -2.8661423 2.8661418 -2.8661423l0 0c0.76014805 0 1.489162 0.30196762 2.026668 0.8394737c0.5375061 0.5375061 0.8394737 1.2665195 0.8394737 2.0266685l0 0c0 1.5829258 -1.2832155 2.8661423 -2.8661418 2.8661423l0 0c-1.5829263 0 -2.8661418 -1.2832165 -2.8661418 -2.8661423z" fill-rule="evenodd"/><path fill="#000000" d="m14.634101 17.5l0 0c0 -1.5829268 1.2832155 -2.8661423 2.8661413 -2.8661423l0 0c0.760149 0 1.4891624 0.30196762 2.0266685 0.8394737c0.5375061 0.5375061 0.8394737 1.2665195 0.8394737 2.0266685l0 0c0 1.5829258 -1.2832146 2.8661423 -2.8661423 2.8661423l0 0c-1.5829258 0 -2.8661413 -1.2832165 -2.8661413 -2.8661423z" fill-rule="evenodd"/><path stroke="#000000" stroke-width="1.0" stroke-linejoin="round" stroke-linecap="butt" d="m14.634101 17.5l0 0c0 -1.5829268 1.2832155 -2.8661423 2.8661413 -2.8661423l0 0c0.760149 0 1.4891624 0.30196762 2.0266685 0.8394737c0.5375061 0.5375061 0.8394737 1.2665195 0.8394737 2.0266685l0 0c0 1.5829258 -1.2832146 2.8661423 -2.8661423 2.8661423l0 0c-1.5829258 0 -2.8661413 -1.2832165 -2.8661413 -2.8661423z" fill-rule="evenodd"/><path fill="#000000" d="m25.245783 17.5l0 0c0 -1.5829268 1.2832146 -2.8661423 2.8661423 -2.8661423l0 0c0.7601471 0 1.4891624 0.30196762 2.0266666 0.8394737c0.5375061 0.5375061 0.8394737 1.2665195 0.8394737 2.0266685l0 0c0 1.5829258 -1.2832146 2.8661423 -2.8661404 2.8661423l0 0c-1.5829277 0 -2.8661423 -1.2832165 -2.8661423 -2.8661423z" fill-rule="evenodd"/><path stroke="#000000" stroke-width="1.0" stroke-linejoin="round" stroke-linecap="butt" d="m25.245783 17.5l0 0c0 -1.5829268 1.2832146 -2.8661423 2.8661423 -2.8661423l0 0c0.7601471 0 1.4891624 0.30196762 2.0266666 0.8394737c0.5375061 0.5375061 0.8394737 1.2665195 0.8394737 2.0266685l0 0c0 1.5829258 -1.2832146 2.8661423 -2.8661404 2.8661423l0 0c-1.5829277 0 -2.8661423 -1.2832165 -2.8661423 -2.8661423z" fill-rule="evenodd"/></g></svg>