<svg version="1.1" viewBox="0.0 0.0 100.0 100.0" fill="none" stroke="none" stroke-linecap="square" stroke-miterlimit="10" xmlns:xlink="http://www.w3.org/1999/xlink" xmlns="http://www.w3.org/2000/svg"><clipPath id="p.0"><path d="m0 0l100.0 0l0 100.0l-100.0 0l0 -100.0z" clip-rule="nonzero"/></clipPath><g clip-path="url(#p.0)"><path fill="#000000" fill-opacity="0.0" d="m0 0l100.0 0l0 100.0l-100.0 0z" fill-rule="evenodd"/><path fill="#ea9999" d="m34.686752 85.17184l-19.858109 -19.858109c-1.0462694 -1.0462723 -1.6337805 -2.4650383 -1.6332884 -3.9441948c4.9209595E-4 -1.4791527 0.5889473 -2.8975296 1.635912 -3.9431038l19.737453 -19.711208c1.296997E-4 -1.2588501E-4 3.3569336E-4 -1.2588501E-4 4.6157837E-4 0l27.74757 27.748035l0 0c1.296997E-4 1.2207031E-4 1.296997E-4 3.3569336E-4 0 4.5776367E-4l-19.737453 19.710747l0 0c-2.180191 2.1772919 -5.713806 2.176117 -7.8925476 -0.0026245117z" fill-rule="evenodd"/><path stroke="#000000" stroke-width="2.0" stroke-linejoin="round" stroke-linecap="butt" d="m34.686752 85.17184l-19.858109 -19.858109c-1.0462694 -1.0462723 -1.6337805 -2.4650383 -1.6332884 -3.9441948c4.9209595E-4 -1.4791527 0.5889473 -2.8975296 1.635912 -3.9431038l19.737453 -19.711208c1.296997E-4 -1.2588501E-4 3.3569336E-4 -1.2588501E-4 4.6157837E-4 0l27.74757 27.748035l0 0c1.296997E-4 1.2207031E-4 1.296997E-4 3.3569336E-4 0 4.5776367E-4l-19.737453 19.710747l0 0c-2.180191 2.1772919 -5.713806 2.176117 -7.8925476 -0.0026245117z" fill-rule="evenodd"/><path fill="#d9d9d9" d="m65.74521 15.324236l18.928955 18.928957l0 0c1.1778336 1.1778336 1.8395386 2.775322 1.8395386 4.4410324c0 1.6657104 -0.661705 3.2631989 -1.8395386 4.4410324l-22.204636 22.20464c-1.2588501E-4 1.2207031E-4 -3.3569336E-4 1.2207031E-4 -4.6157837E-4 0l-27.810562 -27.811028l0 0c-1.2588501E-4 -1.2588501E-4 -1.2588501E-4 -3.3569336E-4 0 -4.6157837E-4l22.204636 -22.204172l0 0c2.4527168 -2.4527159 6.4293556 -2.4527159 8.882069 0z" fill-rule="evenodd"/><path stroke="#000000" stroke-width="2.0" stroke-linejoin="round" stroke-linecap="butt" d="m65.74521 15.324236l18.928955 18.928957l0 0c1.1778336 1.1778336 1.8395386 2.775322 1.8395386 4.4410324c0 1.6657104 -0.661705 3.2631989 -1.8395386 4.4410324l-22.204636 22.20464c-1.2588501E-4 1.2207031E-4 -3.3569336E-4 1.2207031E-4 -4.6157837E-4 0l-27.810562 -27.811028l0 0c-1.2588501E-4 -1.2588501E-4 -1.2588501E-4 -3.3569336E-4 0 -4.6157837E-4l22.204636 -22.204172l0 0c2.4527168 -2.4527159 6.4293556 -2.4527159 8.882069 0z" fill-rule="evenodd"/><path fill="#000000" fill-opacity="0.0" d="m16.028584 87.61899l66.3307 0" fill-rule="evenodd"/><path stroke="#000000" stroke-width="4.0" stroke-linejoin="round" stroke-linecap="butt" d="m16.028584 87.61899l66.3307 0" fill-rule="evenodd"/></g></svg>