<svg version="1.1" viewBox="0.0 0.0 35.0 35.0" fill="none" stroke="none" stroke-linecap="square" stroke-miterlimit="10" xmlns:xlink="http://www.w3.org/1999/xlink" xmlns="http://www.w3.org/2000/svg"><clipPath id="p.0"><path d="m0 0l35.0 0l0 35.0l-35.0 0l0 -35.0z" clip-rule="nonzero"/></clipPath><g clip-path="url(#p.0)"><path fill="#000000" fill-opacity="0.0" d="m0 0l35.0 0l0 35.0l-35.0 0z" fill-rule="evenodd"/><path fill="#000000" d="m2.8916645 2.887139l2.6771655 0l0 29.19685l-2.6771655 0z" fill-rule="evenodd"/><path stroke="#000000" stroke-width="1.0" stroke-linejoin="round" stroke-linecap="butt" d="m2.8916645 2.887139l2.6771655 0l0 29.19685l-2.6771655 0z" fill-rule="evenodd"/><path fill="#000000" d="m32.11541 29.373016l0 2.740158l-29.196852 0l0 -2.740158z" fill-rule="evenodd"/><path stroke="#000000" stroke-width="1.0" stroke-linejoin="round" stroke-linecap="butt" d="m32.11541 29.373016l0 2.740158l-29.196852 0l0 -2.740158z" fill-rule="evenodd"/><path fill="#000000" d="m29.398844 13.999562l2.677164 0l0 18.110237l-2.677164 0z" fill-rule="evenodd"/><path stroke="#000000" stroke-width="1.0" stroke-linejoin="round" stroke-linecap="butt" d="m29.398844 13.999562l2.677164 0l0 18.110237l-2.677164 0z" fill-rule="evenodd"/><path fill="#000000" d="m21.722317 2.887139l0 2.7716534l-18.834644 0l0 -2.7716534z" fill-rule="evenodd"/><path stroke="#000000" stroke-width="1.0" stroke-linejoin="round" stroke-linecap="butt" d="m21.722317 2.887139l0 2.7716534l-18.834644 0l0 -2.7716534z" fill-rule="evenodd"/><path fill="#000000" d="m23.19843 2.887139l8.916981 8.916979l0 4.342864l-13.259844 -13.259843z" fill-rule="evenodd"/><path stroke="#000000" stroke-width="1.0" stroke-linejoin="round" stroke-linecap="butt" d="m23.19843 2.887139l8.916981 8.916979l0 4.342864l-13.259844 -13.259843z" fill-rule="evenodd"/><path fill="#000000" d="m10.62775 19.868404l13.732285 0l0 10.803148l-13.732285 0zm1.3503942 1.3503933l0 8.102362l11.031495 0l0 -8.102362z" fill-rule="evenodd"/><path stroke="#000000" stroke-width="1.0" stroke-linejoin="round" stroke-linecap="butt" d="m10.62775 19.868404l13.732285 0l0 10.803148l-13.732285 0zm1.3503942 1.3503933l0 8.102362l11.031495 0l0 -8.102362z" fill-rule="evenodd"/><path fill="#000000" d="m9.34856 4.1194634l11.086615 0l0 10.80315l-11.086615 0zm1.3503942 1.3503938l0 8.102363l8.385827 0l0 -8.102363z" fill-rule="evenodd"/><path stroke="#000000" stroke-width="1.0" stroke-linejoin="round" stroke-linecap="butt" d="m9.34856 4.1194634l11.086615 0l0 10.80315l-11.086615 0zm1.3503942 1.3503938l0 8.102363l8.385827 0l0 -8.102363z" fill-rule="evenodd"/><path fill="#000000" fill-opacity="0.0" d="m14.1616 25.269127l6.677166 0" fill-rule="evenodd"/><path stroke="#000000" stroke-width="1.0" stroke-linejoin="round" stroke-linecap="butt" d="m14.1616 25.269127l6.677166 0" fill-rule="evenodd"/></g></svg>