<svg version="1.1" viewBox="0.0 0.0 50.0 50.0" fill="none" stroke="none" stroke-linecap="square" stroke-miterlimit="10" xmlns:xlink="http://www.w3.org/1999/xlink" xmlns="http://www.w3.org/2000/svg"><clipPath id="p.0"><path d="m0 0l50.0 0l0 50.0l-50.0 0l0 -50.0z" clip-rule="nonzero"/></clipPath><g clip-path="url(#p.0)"><path fill="#666666" d="m0 0l50.0 0l0 50.0l-50.0 0z" fill-rule="evenodd"/><path fill="#f3f3f3" d="m8.070158 37.798588c9.52253 -7.3291416 24.475668 -7.3050213 33.962074 0.054782867z" fill-rule="evenodd"/><path stroke="#f3f3f3" stroke-width="1.0" stroke-linejoin="round" stroke-linecap="butt" d="m8.070158 37.798588c9.52253 -7.3291416 24.475668 -7.3050213 33.962074 0.054782867z" fill-rule="evenodd"/><path fill="#f3f3f3" d="m15.409449 16.845144l0 0c0 -5.296715 4.2938366 -9.590551 9.590551 -9.590551l0 0c2.5435715 0 4.9829674 1.0104299 6.7815437 2.8090072c1.7985764 1.7985773 2.8090057 4.2379713 2.8090057 6.7815437l0 0c0 5.296715 -4.2938347 9.590551 -9.590549 9.590551l0 0c-5.296715 0 -9.590551 -4.2938366 -9.590551 -9.590551z" fill-rule="evenodd"/><path stroke="#f3f3f3" stroke-width="1.0" stroke-linejoin="round" stroke-linecap="butt" d="m15.409449 16.845144l0 0c0 -5.296715 4.2938366 -9.590551 9.590551 -9.590551l0 0c2.5435715 0 4.9829674 1.0104299 6.7815437 2.8090072c1.7985764 1.7985773 2.8090057 4.2379713 2.8090057 6.7815437l0 0c0 5.296715 -4.2938347 9.590551 -9.590549 9.590551l0 0c-5.296715 0 -9.590551 -4.2938366 -9.590551 -9.590551z" fill-rule="evenodd"/><path fill="#000000" d="m25.942678 19.146395l-1.5 0q0 -0.3125 0 -0.390625q0 -0.71875 0.234375 -1.1875q0.234375 -0.46875 0.953125 -1.046875q0.734375 -0.59375095 0.875 -0.78125095q0.21875 -0.28125 0.21875 -0.640625q0 -0.46875 -0.390625 -0.8125q-0.390625 -0.34375 -1.03125 -0.34375q-0.625 0 -1.046875 0.359375q-0.421875 0.359375 -0.578125 1.078125l-1.515625 -0.1875q0.0625 -1.046875 0.890625 -1.765625q0.828125 -0.734375 2.171875 -0.734375q1.421875 0 2.25 0.734375q0.84375 0.734375 0.84375 1.71875q0 0.546875 -0.3125 1.046876q-0.296875 0.484375 -1.3125 1.3125q-0.515625 0.4375 -0.640625 0.703125q-0.125 0.265625 -0.109375 0.9375zm-1.5 2.21875l0 -1.640625l1.640625 0l0 1.640625l-1.640625 0z" fill-rule="nonzero"/><path fill="#f3f3f3" d="m42.127132 38.064476l0 0c-4.2466316 5.182438 -10.532433 8.171822 -17.15511 8.158577c-6.622677 -0.013240814 -12.896934 -3.0277405 -17.1236 -8.227119z" fill-rule="evenodd"/><path stroke="#f3f3f3" stroke-width="1.0" stroke-linejoin="round" stroke-linecap="butt" d="m42.127132 38.064476l0 0c-4.2466316 5.182438 -10.532433 8.171822 -17.15511 8.158577c-6.622677 -0.013240814 -12.896934 -3.0277405 -17.1236 -8.227119z" fill-rule="evenodd"/></g></svg>