<svg version="1.1" viewBox="0.0 0.0 35.0 35.0" fill="none" stroke="none" stroke-linecap="square" stroke-miterlimit="10" xmlns:xlink="http://www.w3.org/1999/xlink" xmlns="http://www.w3.org/2000/svg"><clipPath id="p.0"><path d="m0 0l35.0 0l0 35.0l-35.0 0l0 -35.0z" clip-rule="nonzero"/></clipPath><g clip-path="url(#p.0)"><path fill="#000000" fill-opacity="0.0" d="m0 0l35.0 0l0 35.0l-35.0 0z" fill-rule="evenodd"/><path fill="#ffffff" d="m4.9657063 17.501467l0 0c0 -6.923129 5.612304 -12.535434 12.535433 -12.535434l0 0c3.324604 0 6.5130405 1.3206935 8.86389 3.6715431c2.350851 2.35085 3.6715431 5.5392866 3.6715431 8.863891l0 0c0 6.923128 -5.612303 12.535433 -12.535433 12.535433l0 0c-6.923128 0 -12.535433 -5.6123047 -12.535433 -12.535433z" fill-rule="evenodd"/><path stroke="#000000" stroke-width="2.0" stroke-linejoin="round" stroke-linecap="butt" d="m4.9657063 17.501467l0 0c0 -6.923129 5.612304 -12.535434 12.535433 -12.535434l0 0c3.324604 0 6.5130405 1.3206935 8.86389 3.6715431c2.350851 2.35085 3.6715431 5.5392866 3.6715431 8.863891l0 0c0 6.923128 -5.612303 12.535433 -12.535433 12.535433l0 0c-6.923128 0 -12.535433 -5.6123047 -12.535433 -12.535433z" fill-rule="evenodd"/></g></svg>