<svg version="1.1" viewBox="0.0 0.0 100.0 100.0" fill="none" stroke="none" stroke-linecap="square" stroke-miterlimit="10" xmlns:xlink="http://www.w3.org/1999/xlink" xmlns="http://www.w3.org/2000/svg"><clipPath id="p.0"><path d="m0 0l100.0 0l0 100.0l-100.0 0l0 -100.0z" clip-rule="nonzero"/></clipPath><g clip-path="url(#p.0)"><path fill="#000000" fill-opacity="0.0" d="m0 0l100.0 0l0 100.0l-100.0 0z" fill-rule="evenodd"/><path fill="#ffffff" d="m10.727034 50.002625l0 0c0 -21.691309 17.584282 -39.27559 39.27559 -39.27559l0 0c10.416534 0 20.406433 4.137952 27.772034 11.503554c7.365608 7.3656006 11.503555 17.355501 11.503555 27.772036l0 0c0 21.691307 -17.584282 39.27559 -39.27559 39.27559l0 0c-21.691309 0 -39.27559 -17.584282 -39.27559 -39.27559z" fill-rule="evenodd"/><path stroke="#000000" stroke-width="3.0" stroke-linejoin="round" stroke-linecap="butt" d="m10.727034 50.002625l0 0c0 -21.691309 17.584282 -39.27559 39.27559 -39.27559l0 0c10.416534 0 20.406433 4.137952 27.772034 11.503554c7.365608 7.3656006 11.503555 17.355501 11.503555 27.772036l0 0c0 21.691307 -17.584282 39.27559 -39.27559 39.27559l0 0c-21.691309 0 -39.27559 -17.584282 -39.27559 -39.27559z" fill-rule="evenodd"/></g></svg>