<svg version="1.1" viewBox="0.0 0.0 35.0 35.0" fill="none" stroke="none" stroke-linecap="square" stroke-miterlimit="10" xmlns:xlink="http://www.w3.org/1999/xlink" xmlns="http://www.w3.org/2000/svg"><clipPath id="p.0"><path d="m0 0l35.0 0l0 35.0l-35.0 0l0 -35.0z" clip-rule="nonzero"/></clipPath><g clip-path="url(#p.0)"><path fill="#000000" fill-opacity="0.0" d="m0 0l35.0 0l0 35.0l-35.0 0z" fill-rule="evenodd"/><path fill="#ffffff" d="m3.0118387 17.499828l0 0c0 -8.001605 6.4865828 -14.488189 14.488188 -14.488189l0 0c3.8425083 0 7.5276356 1.5264299 10.244698 4.243492c2.717062 2.7170625 4.243492 6.4021897 4.243492 10.244696l0 0c0 8.001606 -6.4865837 14.48819 -14.48819 14.48819l0 0c-8.001605 0 -14.488188 -6.4865837 -14.488188 -14.48819z" fill-rule="evenodd"/><path stroke="#000000" stroke-width="2.0" stroke-linejoin="round" stroke-linecap="butt" d="m3.0118387 17.499828l0 0c0 -8.001605 6.4865828 -14.488189 14.488188 -14.488189l0 0c3.8425083 0 7.5276356 1.5264299 10.244698 4.243492c2.717062 2.7170625 4.243492 6.4021897 4.243492 10.244696l0 0c0 8.001606 -6.4865837 14.48819 -14.48819 14.48819l0 0c-8.001605 0 -14.488188 -6.4865837 -14.488188 -14.48819z" fill-rule="evenodd"/></g></svg>