<svg version="1.1" viewBox="0.0 0.0 100.0 100.0" fill="none" stroke="none" stroke-linecap="square" stroke-miterlimit="10" xmlns:xlink="http://www.w3.org/1999/xlink" xmlns="http://www.w3.org/2000/svg"><clipPath id="p.0"><path d="m0 0l100.0 0l0 100.0l-100.0 0l0 -100.0z" clip-rule="nonzero"/></clipPath><g clip-path="url(#p.0)"><path fill="#000000" fill-opacity="0.0" d="m0 0l100.0 0l0 100.0l-100.0 0z" fill-rule="evenodd"/><path fill="#ffffff" d="m30.420769 73.987946l23.468979 -16.222862l-21.799686 -42.01336z" fill-rule="evenodd"/><path fill="#ffffff" d="m72.0301 58.377842l-28.14283 4.023842l-11.731182 -46.03959z" fill-rule="evenodd"/><path fill="#ffffff" d="m44.622337 59.206345l7.527561 -2.3622055l8.283463 26.047241l-7.5275574 2.3622055z" fill-rule="evenodd"/><path fill="#000000" d="m31.14075 13.0787735l0 0c0.21743584 -0.2348299 0.5686245 -0.23359585 0.78440475 0.0027561188l43.1556 47.27008c0.10362244 0.11349869 0.16152191 0.26715088 0.16095734 0.4271469c-5.645752E-4 0.15999603 -0.059539795 0.31323242 -0.16395569 0.4260025l0 0l0 0c-0.21743774 0.23482895 -0.5686264 0.2335968 -0.78440094 -0.0027542114l-43.1556 -47.27008c-0.21578026 -0.23635197 -0.21443748 -0.61832047 0.0029964447 -0.85315037z" fill-rule="evenodd"/><path stroke="#000000" stroke-width="1.0" stroke-linejoin="round" stroke-linecap="butt" d="m31.14075 13.0787735l0 0c0.21743584 -0.2348299 0.5686245 -0.23359585 0.78440475 0.0027561188l43.1556 47.27008c0.10362244 0.11349869 0.16152191 0.26715088 0.16095734 0.4271469c-5.645752E-4 0.15999603 -0.059539795 0.31323242 -0.16395569 0.4260025l0 0l0 0c-0.21743774 0.23482895 -0.5686264 0.2335968 -0.78440094 -0.0027542114l-43.1556 -47.27008c-0.21578026 -0.23635197 -0.21443748 -0.61832047 0.0029964447 -0.85315037z" fill-rule="evenodd"/><path fill="#000000" d="m31.331688 13.247361l0 0c-0.26092148 -0.03479004 -0.48101807 0.1502266 -0.49160004 0.41324425l-2.5758533 64.0239c-0.0050811768 0.12630463 0.039819717 0.2540741 0.12482643 0.35520172c0.085006714 0.101127625 0.20315552 0.16732025 0.32845497 0.18402863l0 0l0 0c0.26092148 0.03479004 0.48101807 -0.15023041 0.49160004 -0.41324615l2.5758533 -64.0239c0.01058197 -0.26301765 -0.19235802 -0.5044384 -0.4532814 -0.53922844z" fill-rule="evenodd"/><path stroke="#000000" stroke-width="1.0" stroke-linejoin="round" stroke-linecap="butt" d="m31.331688 13.247361l0 0c-0.26092148 -0.03479004 -0.48101807 0.1502266 -0.49160004 0.41324425l-2.5758533 64.0239c-0.0050811768 0.12630463 0.039819717 0.2540741 0.12482643 0.35520172c0.085006714 0.101127625 0.20315552 0.16732025 0.32845497 0.18402863l0 0l0 0c0.26092148 0.03479004 0.48101807 -0.15023041 0.49160004 -0.41324615l2.5758533 -64.0239c0.01058197 -0.26301765 -0.19235802 -0.5044384 -0.4532814 -0.53922844z" fill-rule="evenodd"/><path fill="#000000" d="m44.413513 65.208916l0 0c-0.14785385 -0.22613525 -0.4372177 -0.2707367 -0.6463051 -0.09963226l-15.022348 12.293739c-0.100408554 0.08217621 -0.168499 0.20411682 -0.189291 0.33900452c-0.020793915 0.1348877 0.007413864 0.2716751 0.078416824 0.3802719l0 0l0 0c0.14785576 0.22612762 0.4372177 0.2707367 0.646307 0.099624634l15.02235 -12.293739c0.20908737 -0.17111206 0.25872803 -0.49314117 0.11087036 -0.7192688z" fill-rule="evenodd"/><path stroke="#000000" stroke-width="1.0" stroke-linejoin="round" stroke-linecap="butt" d="m44.413513 65.208916l0 0c-0.14785385 -0.22613525 -0.4372177 -0.2707367 -0.6463051 -0.09963226l-15.022348 12.293739c-0.100408554 0.08217621 -0.168499 0.20411682 -0.189291 0.33900452c-0.020793915 0.1348877 0.007413864 0.2716751 0.078416824 0.3802719l0 0l0 0c0.14785576 0.22612762 0.4372177 0.2707367 0.646307 0.099624634l15.02235 -12.293739c0.20908737 -0.17111206 0.25872803 -0.49314117 0.11087036 -0.7192688z" fill-rule="evenodd"/><path fill="#000000" d="m44.03875 65.13715l0 0c0.30440903 -0.11306 0.64131546 0.04261017 0.7524986 0.34770966l7.5973663 20.847893c0.053390503 0.1465149 0.046527863 0.30859375 -0.01908493 0.45059204c-0.06561279 0.14199066 -0.18459702 0.25226593 -0.33078003 0.30656433l0 0l0 0c-0.30440903 0.11306763 -0.64131546 -0.04261017 -0.7524986 -0.34770966l-7.5973663 -20.847885c-0.11118317 -0.30510712 0.045455933 -0.6440964 0.34986496 -0.757164z" fill-rule="evenodd"/><path stroke="#000000" stroke-width="1.0" stroke-linejoin="round" stroke-linecap="butt" d="m44.03875 65.13715l0 0c0.30440903 -0.11306 0.64131546 0.04261017 0.7524986 0.34770966l7.5973663 20.847893c0.053390503 0.1465149 0.046527863 0.30859375 -0.01908493 0.45059204c-0.06561279 0.14199066 -0.18459702 0.25226593 -0.33078003 0.30656433l0 0l0 0c-0.30440903 0.11306763 -0.64131546 -0.04261017 -0.7524986 -0.34770966l-7.5973663 -20.847885c-0.11118317 -0.30510712 0.045455933 -0.6440964 0.34986496 -0.757164z" fill-rule="evenodd"/><path fill="#000000" d="m54.412514 61.187317l0 0c0.287014 -0.09566879 0.60344696 0.057281494 0.70677567 0.34163284l7.625824 20.986027c0.049617767 0.1365509 0.042453766 0.28575897 -0.01992035 0.41480255c-0.062374115 0.12903595 -0.17485046 0.22734833 -0.3126793 0.2732849l0 0l0 0c-0.287014 0.09567261 -0.60344696 -0.057281494 -0.70677185 -0.34162903l-7.625824 -20.98603c-0.10332489 -0.28434753 0.045581818 -0.59241486 0.33259583 -0.68808746z" fill-rule="evenodd"/><path stroke="#000000" stroke-width="1.0" stroke-linejoin="round" stroke-linecap="butt" d="m54.412514 61.187317l0 0c0.287014 -0.09566879 0.60344696 0.057281494 0.70677567 0.34163284l7.625824 20.986027c0.049617767 0.1365509 0.042453766 0.28575897 -0.01992035 0.41480255c-0.062374115 0.12903595 -0.17485046 0.22734833 -0.3126793 0.2732849l0 0l0 0c-0.287014 0.09567261 -0.60344696 -0.057281494 -0.70677185 -0.34162903l-7.625824 -20.98603c-0.10332489 -0.28434753 0.045581818 -0.59241486 0.33259583 -0.68808746z" fill-rule="evenodd"/><path fill="#000000" d="m62.76856 82.49632l0 0c0.1043663 0.29571533 -0.049106598 0.62454987 -0.34279633 0.7344818l-10.464016 3.9168625c-0.14103699 0.05278778 -0.2962036 0.04701233 -0.43136978 -0.016075134c-0.13516617 -0.063079834 -0.23925781 -0.17829895 -0.28937912 -0.32030487l0 0l0 0c-0.1043663 -0.29571533 0.049106598 -0.62454987 0.34279633 -0.73448944l10.464016 -3.9168549c0.29368973 -0.109931946 0.6163788 0.040672302 0.7207489 0.33638z" fill-rule="evenodd"/><path stroke="#000000" stroke-width="1.0" stroke-linejoin="round" stroke-linecap="butt" d="m62.76856 82.49632l0 0c0.1043663 0.29571533 -0.049106598 0.62454987 -0.34279633 0.7344818l-10.464016 3.9168625c-0.14103699 0.05278778 -0.2962036 0.04701233 -0.43136978 -0.016075134c-0.13516617 -0.063079834 -0.23925781 -0.17829895 -0.28937912 -0.32030487l0 0l0 0c-0.1043663 -0.29571533 0.049106598 -0.62454987 0.34279633 -0.73448944l10.464016 -3.9168549c0.29368973 -0.109931946 0.6163788 0.040672302 0.7207489 0.33638z" fill-rule="evenodd"/><path fill="#000000" d="m53.91916 61.564453l0 0c-0.03479004 -0.32180405 0.19934082 -0.58843994 0.5229416 -0.5955467l20.33995 -0.44670486c0.15539551 -0.0034103394 0.31106567 0.05470276 0.43276215 0.16156387c0.12169647 0.106861115 0.19944763 0.2537117 0.216156 0.4082451l0 0l0 0c0.03479004 0.32180405 -0.19933319 0.58843994 -0.52293396 0.5955467l-20.33995 0.44670486c-0.32360077 0.007106781 -0.61413574 -0.24800491 -0.6489258 -0.56980896z" fill-rule="evenodd"/><path stroke="#000000" stroke-width="1.0" stroke-linejoin="round" stroke-linecap="butt" d="m53.91916 61.564453l0 0c-0.03479004 -0.32180405 0.19934082 -0.58843994 0.5229416 -0.5955467l20.33995 -0.44670486c0.15539551 -0.0034103394 0.31106567 0.05470276 0.43276215 0.16156387c0.12169647 0.106861115 0.19944763 0.2537117 0.216156 0.4082451l0 0l0 0c0.03479004 0.32180405 -0.19933319 0.58843994 -0.52293396 0.5955467l-20.33995 0.44670486c-0.32360077 0.007106781 -0.61413574 -0.24800491 -0.6489258 -0.56980896z" fill-rule="evenodd"/></g></svg>