<svg version="1.1" viewBox="0.0 0.0 100.0 100.0" fill="none" stroke="none" stroke-linecap="square" stroke-miterlimit="10" xmlns:xlink="http://www.w3.org/1999/xlink" xmlns="http://www.w3.org/2000/svg"><clipPath id="p.0"><path d="m0 0l100.0 0l0 100.0l-100.0 0l0 -100.0z" clip-rule="nonzero"/></clipPath><g clip-path="url(#p.0)"><path fill="#000000" fill-opacity="0.0" d="m0 0l100.0 0l0 100.0l-100.0 0z" fill-rule="evenodd"/><path fill="#ffffff" d="m28.95693 31.107763l2.1508331 -2.1508331l18.892237 18.892237l18.892235 -18.892237l2.1508331 2.1508331l-18.892235 18.892237l18.892235 18.892235l-2.1508331 2.1508331l-18.892235 -18.892235l-18.892237 18.892235l-2.1508331 -2.1508331l18.892237 -18.892235z" fill-rule="evenodd"/><path stroke="#ffffff" stroke-width="1.0" stroke-linejoin="round" stroke-linecap="butt" d="m28.95693 31.107763l2.1508331 -2.1508331l18.892237 18.892237l18.892235 -18.892237l2.1508331 2.1508331l-18.892235 18.892237l18.892235 18.892235l-2.1508331 2.1508331l-18.892235 -18.892235l-18.892237 18.892235l-2.1508331 -2.1508331l18.892237 -18.892235z" fill-rule="evenodd"/></g></svg>